<svg width="50" height="50" viewBox="0 0 50 50" fill="none" xmlns="http://www.w3.org/2000/svg">
<circle cx="25" cy="25" r="25" fill="#58BAAB" fill-opacity="0.3"/>
<path fill-rule="evenodd" clip-rule="evenodd" d="M24.876 22.3601C24.8835 22.3602 24.8909 22.3602 24.8984 22.3601H24.8764C25.7623 22.3561 26.6113 22.0019 27.2376 21.3741C27.8912 20.7523 28.2689 19.8949 28.2865 18.993C28.2874 18.3282 28.0902 17.6782 27.7201 17.1259C27.346 16.5742 26.8219 16.1411 26.2096 15.8776C25.5925 15.622 24.9132 15.5562 24.2585 15.6888C23.6067 15.8139 23.0074 16.1318 22.5383 16.6014C21.8268 17.3136 21.4701 18.3061 21.5655 19.3083C21.6608 20.3105 22.1983 21.2179 23.0313 21.7832C23.5741 22.1568 24.2168 22.3578 24.8754 22.3601H24.846M23.5663 17.0105C23.9596 16.7443 24.4235 16.6019 24.8985 16.6014H24.909C25.546 16.5986 26.1581 16.849 26.6106 17.2975C27.063 17.7461 27.3188 18.3559 27.3215 18.993C27.3268 19.4672 27.1878 19.9318 26.9229 20.3252C26.6678 20.7184 26.3031 21.0283 25.874 21.2168C25.4261 21.4016 24.9342 21.4526 24.4579 21.3636C23.9931 21.2654 23.5647 21.0403 23.2201 20.7133C22.7108 20.2054 22.4547 19.4966 22.5216 18.7804C22.5886 18.0642 22.9716 17.4152 23.5663 17.0105Z" fill="#58BAAB"/>
<path fill-rule="evenodd" clip-rule="evenodd" d="M18.1118 34.0245H31.6747C31.9522 34.0199 32.2249 33.9517 32.4719 33.8252C32.9518 33.5852 33.3093 33.1554 33.4579 32.6399C33.5153 32.3843 33.5153 32.1192 33.4579 31.8636C32.6303 27.7497 29.0162 24.7903 24.8198 24.7903C20.6234 24.7903 17.0093 27.7497 16.1817 31.8636C16.1394 32.1271 16.161 32.3969 16.2446 32.6504C16.3252 32.9044 16.4614 33.1373 16.6432 33.3322C16.819 33.5541 17.0457 33.7304 17.3041 33.8462C17.5542 33.972 17.8319 34.0333 18.1118 34.0245ZM24.8961 25.7692C21.1394 25.7413 17.89 28.3802 17.1467 32.0629C17.1205 32.1804 17.1205 32.3022 17.1467 32.4196C17.1771 32.5362 17.2346 32.644 17.3146 32.7343C17.4013 32.8403 17.5131 32.9232 17.6397 32.9755C17.7635 33.0375 17.8999 33.0698 18.0383 33.0699H31.6747C31.8131 33.0698 31.9496 33.0375 32.0733 32.9755C32.3124 32.8732 32.4933 32.6692 32.5663 32.4196C32.5925 32.3022 32.5925 32.1804 32.5663 32.0629C31.8438 28.4003 28.6286 25.7627 24.8961 25.7692Z" fill="#58BAAB"/>
</svg>
