<svg width="24" height="24" viewBox="0 0 24 24" fill="none" xmlns="http://www.w3.org/2000/svg">
<path fill-rule="evenodd" clip-rule="evenodd" d="M11.29 20.5501C11.5021 20.687 11.7476 20.7631 12 20.7701C12.2564 20.7599 12.5052 20.6804 12.72 20.5401C12.9429 20.4156 13.1239 20.2276 13.24 20.0001L16.94 12.6701C17.02 12.5201 17.13 12.2901 17.26 12.0001C17.5452 11.3568 17.7663 10.6869 17.92 10.0001C18.1219 8.68152 17.8566 7.33381 17.17 6.19012C16.6905 5.386 16.0339 4.70196 15.25 4.19012C13.6475 3.14864 11.6423 2.9403 9.85998 3.63012C8.98153 3.96175 8.196 4.5003 7.56998 5.20012C6.98593 5.84513 6.54917 6.60947 6.28998 7.44012C6.03415 8.26778 5.95578 9.1401 6.05998 10.0001C6.2123 10.648 6.44054 11.2757 6.73998 11.8701C6.87998 12.1901 7.00998 12.4501 7.09998 12.6201L10.8 20.0001C10.9073 20.2265 11.0774 20.4174 11.29 20.5501ZM9.45998 4.85012C10.2275 4.39068 11.1055 4.1487 12 4.15012C12.4416 4.14928 12.8816 4.20302 13.31 4.31012C14.61 4.65448 15.7209 5.49933 16.4 6.66012C16.9649 7.6034 17.194 8.71009 17.05 9.80012C16.899 10.4114 16.6915 11.0073 16.43 11.5801C16.31 11.8401 16.21 12.0501 16.12 12.2101L12.43 19.6001C12.3873 19.6747 12.3294 19.7395 12.26 19.7901C12.184 19.8335 12.0973 19.8543 12.01 19.8501C11.8329 19.8672 11.6659 19.7653 11.6 19.6001L7.92998 12.2201C7.83998 12.0501 7.71998 11.8201 7.58998 11.5201C7.32128 10.9986 7.12289 10.4438 6.99998 9.87012C6.90306 9.14161 6.96794 8.4007 7.18998 7.70012C7.41226 7.01493 7.7769 6.38447 8.25998 5.85012C8.59848 5.44923 9.00462 5.11078 9.45998 4.85012Z" fill="#160E4E"/>
<path fill-rule="evenodd" clip-rule="evenodd" d="M10.7201 11.7299C11.0992 11.9828 11.5443 12.1184 12.0001 12.1199C12.6075 12.125 13.1928 11.8916 13.6301 11.4699C14.0591 11.035 14.3029 10.4507 14.3101 9.83987C14.3073 8.90768 13.7445 8.0685 12.8831 7.71214C12.0217 7.35578 11.0306 7.55209 10.3701 8.20987C10.041 8.52705 9.82056 8.94001 9.74005 9.38987C9.64752 9.83944 9.69283 10.3065 9.87005 10.7299C10.0477 11.1403 10.3436 11.4884 10.7201 11.7299ZM11.2301 8.65987C11.4585 8.50906 11.7263 8.42905 12.0001 8.42987C12.3738 8.42226 12.7347 8.5666 13.0001 8.82987C13.459 9.30372 13.5216 10.0348 13.1501 10.5799C13.0004 10.8092 12.784 10.9872 12.5301 11.0899C12.0121 11.3102 11.4122 11.1938 11.0142 10.7957C10.6162 10.3977 10.4998 9.79786 10.7201 9.27987C10.8227 9.02594 11.0007 8.80956 11.2301 8.65987Z" fill="#160E4E"/>
</svg>
