<?xml version="1.0" encoding="UTF-8"?>
<!DOCTYPE svg PUBLIC "-//W3C//DTD SVG 1.1//EN" "http://www.w3.org/Graphics/SVG/1.1/DTD/svg11.dtd">
<!-- Creator: CorelDRAW 2018 (64-Bit) -->
<svg xmlns="http://www.w3.org/2000/svg" xml:space="preserve" width="84.6666mm" height="30.4798mm" version="1.1" style="shape-rendering:geometricPrecision; text-rendering:geometricPrecision; image-rendering:optimizeQuality; fill-rule:evenodd; clip-rule:evenodd"
viewBox="0 0 8466.66 3047.98"
 xmlns:xlink="http://www.w3.org/1999/xlink">
 <defs>
  <style type="text/css">
   <![CDATA[
    .fil1 {fill:#0AC9AC;fill-rule:nonzero}
    .fil0 {fill:#1C1C20;fill-rule:nonzero}
    .fil2 {fill:#F6BC00;fill-rule:nonzero}
   ]]>
  </style>
 </defs>
 <g id="Слой_x0020_1">
  <metadata id="CorelCorpID_0Corel-Layer"/>
  <path class="fil0" d="M1496.16 1843.08c-50.6,0 -99.72,-6.25 -147.35,-18.75 -47.64,-12.5 -86.34,-29.18 -116.11,-50.01l58.05 -130.39c27.99,18.45 60.44,33.34 97.35,44.65 36.91,11.31 73.23,16.97 108.96,16.97 67.87,0 101.81,-16.97 101.81,-50.91 0,-17.86 -9.68,-31.11 -29.03,-39.74 -19.35,-8.63 -50.46,-17.71 -93.32,-27.24 -47.04,-10.12 -86.34,-20.99 -117.89,-32.6 -31.56,-11.61 -58.65,-30.21 -81.27,-55.81 -22.63,-25.6 -33.94,-60.14 -33.94,-103.6 0,-38.1 10.42,-72.49 31.26,-103.15 20.84,-30.66 51.95,-54.93 93.33,-72.79 41.38,-17.86 92.13,-26.79 152.27,-26.79 41.08,0 81.56,4.62 121.46,13.84 39.89,9.23 75.01,22.78 105.38,40.64l-54.48 131.28c-59.54,-32.15 -117.29,-48.22 -173.26,-48.22 -35.12,0 -60.73,5.2 -76.8,15.62 -16.08,10.42 -24.11,23.97 -24.11,40.64 0,16.67 9.52,29.17 28.57,37.51 19.06,8.33 49.72,16.97 91.99,25.9 47.63,10.12 87.08,20.99 118.33,32.6 31.26,11.61 58.35,30.06 81.27,55.37 22.93,25.3 34.39,59.68 34.39,103.15 0,37.51 -10.42,71.44 -31.26,101.81 -20.84,30.36 -52.1,54.62 -93.77,72.78 -41.68,18.16 -92.29,27.24 -151.83,27.24zm922.55 -12.5l-1.78 -331.33 -160.76 269.71 -78.59 0 -159.86 -260.78 0 322.4 -163.43 0 0 -625.16 145.57 0 219.7 360.81 214.33 -360.81 145.58 0 1.78 625.16 -162.54 0zm706.43 -121.46l-264.35 0 -49.12 121.46 -180.4 0 275.96 -625.16 174.15 0 276.85 625.16 -183.97 0 -49.12 -121.46zm-51.8 -130.39l-80.38 -200.05 -80.37 200.05 160.75 0zm608.19 85.74l-96.45 0 0 166.11 -176.83 0 0 -625.16 285.78 0c56.56,0 105.68,9.38 147.36,28.14 41.68,18.75 73.83,45.54 96.45,80.37 22.63,34.83 33.94,75.77 33.94,122.8 0,45.25 -10.57,84.7 -31.71,118.33 -21.13,33.64 -51.35,59.99 -90.64,79.04l134.85 196.48 -189.33 0 -113.42 -166.11zm111.63 -227.74c0,-29.17 -9.23,-51.8 -27.68,-67.87 -18.46,-16.08 -45.85,-24.12 -82.17,-24.12l-98.23 0 0 183.09 98.23 0c36.32,0 63.71,-7.89 82.17,-23.67 18.45,-15.78 27.68,-38.25 27.68,-67.43zm400.1 -91.09l-192.01 0 0 -140.22 559.96 0 0 140.22 -191.12 0 0 484.94 -176.83 0 0 -484.94zm913.63 497.44c-50.6,0 -99.72,-6.25 -147.35,-18.75 -47.64,-12.5 -86.34,-29.18 -116.11,-50.01l58.05 -130.39c27.99,18.45 60.44,33.34 97.35,44.65 36.91,11.31 73.23,16.97 108.96,16.97 67.87,0 101.81,-16.97 101.81,-50.91 0,-17.86 -9.68,-31.11 -29.03,-39.74 -19.35,-8.63 -50.46,-17.71 -93.32,-27.24 -47.04,-10.12 -86.34,-20.99 -117.89,-32.6 -31.56,-11.61 -58.65,-30.21 -81.27,-55.81 -22.63,-25.6 -33.94,-60.14 -33.94,-103.6 0,-38.1 10.42,-72.49 31.26,-103.15 20.84,-30.66 51.95,-54.93 93.33,-72.79 41.38,-17.86 92.13,-26.79 152.27,-26.79 41.08,0 81.56,4.62 121.46,13.84 39.89,9.23 75.01,22.78 105.38,40.64l-54.48 131.28c-59.54,-32.15 -117.29,-48.22 -173.26,-48.22 -35.12,0 -60.73,5.2 -76.8,15.62 -16.08,10.42 -24.11,23.97 -24.11,40.64 0,16.67 9.52,29.17 28.57,37.51 19.06,8.33 49.72,16.97 91.99,25.9 47.63,10.12 87.08,20.99 118.33,32.6 31.26,11.61 58.35,30.06 81.27,55.37 22.93,25.3 34.39,59.68 34.39,103.15 0,37.51 -10.42,71.44 -31.26,101.81 -20.84,30.36 -52.1,54.62 -93.77,72.78 -41.68,18.16 -92.29,27.24 -151.83,27.24zm776.98 -133.96l-264.35 0 -49.12 121.46 -180.4 0 275.96 -625.16 174.15 0 276.86 625.16 -183.98 0 -49.12 -121.46zm-51.8 -130.39l-80.38 -200.05 -80.37 200.05 160.75 0zm511.75 -236.66l0 137.53 275.96 0 0 136.64 -275.96 0 0 214.34 -176.83 0 0 -625.16 490.3 0 0 136.65 -313.47 0zm898.44 351.87l0 136.64 -501.91 0 0 -625.16 490.3 0 0 136.65 -315.26 0 0 105.38 277.75 0 0 132.17 -277.75 0 0 114.32 326.87 0zm231.3 -348.3l-192.01 0 0 -140.22 559.96 0 0 140.22 -191.12 0 0 484.94 -176.83 0 0 -484.94zm753.76 260.78l0 224.16 -176.83 0 0 -226.84 -238.45 -398.32 186.65 0 148.25 248.28 148.25 -248.28 171.48 0 -239.35 401z"/>
  <path class="fil0" d="M4462.81 2139.11l0 271.61 -340.29 0 0 -271.61 38.42 0 0 237.85 112.91 0 0 -237.85 38.02 0 0 237.85 112.91 0 0 -237.85 38.03 0zm158.3 184.7l-42.68 0 0 86.91 -37.25 0 0 -205.65 37.25 0 0 86.92 43.46 0 66.74 -86.92 39.96 0 -77.99 98.95 83.43 106.7 -43.85 0 -69.07 -86.91zm233.2 89.24c-20.43,0 -38.8,-4.53 -55.09,-13.58 -16.3,-9.06 -29.04,-21.54 -38.22,-37.45 -9.19,-15.9 -13.78,-33.95 -13.78,-54.12 0,-20.18 4.59,-38.22 13.78,-54.13 9.18,-15.91 21.92,-28.32 38.22,-37.25 16.29,-8.92 34.66,-13.39 55.09,-13.39 20.44,0 38.74,4.47 54.91,13.39 16.16,8.93 28.84,21.34 38.02,37.25 9.18,15.91 13.78,33.95 13.78,54.13 0,20.17 -4.6,38.22 -13.78,54.12 -9.18,15.91 -21.86,28.39 -38.02,37.45 -16.17,9.05 -34.47,13.58 -54.91,13.58zm0 -32.59c13.2,0 25.03,-3.04 35.51,-9.12 10.47,-6.08 18.69,-14.62 24.63,-25.61 5.95,-11 8.93,-23.61 8.93,-37.83 0,-14.23 -2.98,-26.84 -8.93,-37.83 -5.94,-11 -14.16,-19.47 -24.63,-25.42 -10.48,-5.95 -22.31,-8.92 -35.51,-8.92 -13.19,0 -25.02,2.97 -35.5,8.92 -10.48,5.95 -18.75,14.42 -24.83,25.42 -6.08,10.99 -9.12,23.6 -9.12,37.83 0,14.22 3.04,26.83 9.12,37.83 6.08,10.99 14.35,19.53 24.83,25.61 10.48,6.08 22.31,9.12 35.5,9.12zm335.63 -175.39l0 205.65 -37.25 0 0 -173.05 -88.47 0 -2.32 45.78c-1.3,27.68 -3.75,50.77 -7.38,69.26 -3.62,18.5 -9.57,33.31 -17.84,44.43 -8.28,11.12 -19.79,16.68 -34.54,16.68 -6.72,0 -14.35,-1.16 -22.89,-3.49l2.33 -31.43c3.36,0.78 6.46,1.17 9.31,1.17 10.35,0 18.11,-4.53 23.28,-13.58 5.17,-9.06 8.54,-19.79 10.09,-32.21 1.55,-12.41 2.97,-30.13 4.27,-53.16l3.49 -76.05 157.92 0zm145.5 -1.94c28.45,0 50.25,6.99 65.38,20.96 15.13,13.97 22.7,34.79 22.7,62.47l0 124.16 -35.31 0 0 -27.16c-6.21,9.57 -15.07,16.88 -26.58,21.92 -11.51,5.05 -25.16,7.57 -40.94,7.57 -23.02,0 -41.45,-5.56 -55.29,-16.69 -13.84,-11.12 -20.76,-25.73 -20.76,-43.84 0,-18.11 6.6,-32.66 19.79,-43.65 13.2,-11 34.15,-16.49 62.86,-16.49l58.98 0 0 -7.38c0,-16.03 -4.66,-28.32 -13.97,-36.86 -9.31,-8.53 -23.02,-12.8 -41.13,-12.8 -12.16,0 -24.06,2 -35.7,6.01 -11.64,4.01 -21.47,9.38 -29.48,16.11l-15.53 -27.94c10.61,-8.54 23.29,-15.07 38.03,-19.6 14.74,-4.52 30.39,-6.79 46.95,-6.79zm-8.54 181.21c14.23,0 26.52,-3.17 36.86,-9.51 10.35,-6.34 17.85,-15.33 22.51,-26.97l0 -28.71 -57.43 0c-31.56,0 -47.33,10.61 -47.33,31.82 0,10.34 4,18.49 12.02,24.44 8.02,5.95 19.15,8.93 33.37,8.93zm149.78 -96.23l104.38 0 0 32.2 -104.38 0 0 -32.2zm346.5 -115.24l-139.68 0 0.39 237.85 -38.42 0 0 -271.61 178.1 0 -0.39 33.76zm1.16 32.2l37.25 0 0 149.78 126.11 -149.78 33.75 0 0 205.65 -37.24 0 0 -149.77 -125.72 149.77 -34.15 0 0 -205.65zm506.36 0l0 205.65 -33.76 0 0 -150.16 -76.82 126.88 -16.3 0 -76.05 -127.27 0 150.55 -34.15 0 0 -205.65 38.42 0 80.7 138.91 83.04 -138.91 34.92 0zm72.55 0l37.25 0 0 87.31 117.18 0 0 -87.31 37.25 0 0 205.65 -37.25 0 0 -86.14 -117.18 0 0 86.14 -37.25 0 0 -205.65zm337.57 -1.94c28.45,0 50.25,6.99 65.38,20.96 15.13,13.97 22.7,34.79 22.7,62.47l0 124.16 -35.31 0 0 -27.16c-6.21,9.57 -15.07,16.88 -26.58,21.92 -11.51,5.05 -25.16,7.57 -40.94,7.57 -23.02,0 -41.45,-5.56 -55.29,-16.69 -13.84,-11.12 -20.76,-25.73 -20.76,-43.84 0,-18.11 6.6,-32.66 19.79,-43.65 13.2,-11 34.15,-16.49 62.86,-16.49l58.98 0 0 -7.38c0,-16.03 -4.66,-28.32 -13.97,-36.86 -9.31,-8.53 -23.02,-12.8 -41.13,-12.8 -12.16,0 -24.06,2 -35.7,6.01 -11.64,4.01 -21.47,9.38 -29.48,16.11l-15.53 -27.94c10.61,-8.54 23.29,-15.07 38.03,-19.6 14.74,-4.52 30.39,-6.79 46.95,-6.79zm-8.54 181.21c14.23,0 26.52,-3.17 36.86,-9.51 10.35,-6.34 17.85,-15.33 22.51,-26.97l0 -28.71 -57.43 0c-31.56,0 -47.33,10.61 -47.33,31.82 0,10.34 4,18.49 12.02,24.44 8.02,5.95 19.15,8.93 33.37,8.93zm271.61 -80.71c13.71,3.62 24.32,9.44 31.82,17.46 7.5,8.02 11.25,17.98 11.25,29.88 0,12.15 -4.14,22.95 -12.41,32.4 -8.28,9.44 -19.73,16.81 -34.34,22.11 -14.62,5.3 -30.98,7.96 -49.09,7.96 -15.26,0 -30.2,-2.01 -44.81,-6.02 -14.62,-4.01 -27.61,-9.76 -39,-17.26l11.26 -28.33c9.83,6.21 21.08,11.06 33.75,14.55 12.68,3.49 25.48,5.24 38.42,5.24 17.59,0 31.62,-3.04 42.1,-9.12 10.47,-6.08 15.71,-14.29 15.71,-24.64 0,-9.57 -4.2,-16.94 -12.61,-22.11 -8.41,-5.18 -20.24,-7.76 -35.5,-7.76l-37.64 0 0 -26.78 34.92 0c13.97,0 24.96,-2.45 32.98,-7.37 8.02,-4.91 12.03,-11.64 12.03,-20.18 0,-9.31 -4.72,-16.55 -14.16,-21.72 -9.44,-5.18 -22.18,-7.76 -38.22,-7.76 -20.44,0 -42.04,5.3 -64.8,15.9l-10.09 -28.71c25.09,-12.67 51.35,-19.01 78.77,-19.01 16.55,0 31.43,2.33 44.62,6.98 13.19,4.66 23.54,11.26 31.04,19.79 7.5,8.54 11.25,18.24 11.25,29.1 0,10.09 -3.36,19.14 -10.09,27.16 -6.72,8.02 -15.77,14.1 -27.16,18.24zm99.72 -98.56l37.25 0 0 149.78 126.11 -149.78 33.75 0 0 205.65 -37.24 0 0 -149.77 -125.72 149.77 -34.15 0 0 -205.65zm434.19 0l0 205.65 -33.37 0 0 -65.19 -59.75 0 -4.27 0 -45.01 65.19 -39.97 0 50.06 -70.23c-15.52,-4.66 -27.42,-12.35 -35.7,-23.09 -8.28,-10.73 -12.42,-24.12 -12.42,-40.16 0,-23.53 8.02,-41.45 24.06,-53.73 16.04,-12.29 38.16,-18.44 66.35,-18.44l90.02 0zm-142.4 73.34c0,13.71 4.33,23.86 13,30.46 8.66,6.59 21.66,9.89 38.99,9.89l57.04 0 0 -81.09 -55.49 0c-35.69,0 -53.54,13.58 -53.54,40.74zm661.94 -16.3c-13.19,0 -25.03,-2.71 -35.51,-8.15 -10.47,-5.43 -18.68,-12.93 -24.63,-22.5 -5.95,-9.57 -8.93,-20.31 -8.93,-32.21 0,-11.89 2.98,-22.63 8.93,-32.2 5.95,-9.57 14.16,-17.01 24.63,-22.31 10.48,-5.3 22.32,-7.96 35.51,-7.96 13.19,0 25.02,2.66 35.5,7.96 10.48,5.3 18.63,12.74 24.45,22.31 5.82,9.57 8.73,20.31 8.73,32.2 0,11.9 -2.91,22.64 -8.73,32.21 -5.82,9.57 -13.97,17.07 -24.45,22.5 -10.48,5.44 -22.31,8.15 -35.5,8.15zm-143.18 -123l38.8 0 0 271.61 -31.81 0 -162.97 -202.54 0 202.54 -38.8 0 0 -271.61 31.82 0 162.96 202.54 0 -202.54zm143.18 19.79c-12.94,0 -23.35,3.75 -31.24,11.25 -7.89,7.51 -11.83,17.21 -11.83,29.1 0,11.9 4.01,21.6 12.03,29.11 8.02,7.5 18.36,11.25 31.04,11.25 12.67,0 22.96,-3.75 30.84,-11.25 7.89,-7.51 11.84,-17.21 11.84,-29.11 0,-11.89 -3.95,-21.59 -11.84,-29.1 -7.88,-7.5 -18.17,-11.25 -30.84,-11.25zm-61.31 133.86l122.61 0 0 25.23 -122.61 0 0 -25.23zm470.65 -153.65l0 26.39 -109.81 245.22 -41.13 0 107.48 -237.85 -124.16 0 0 48.5 -37.25 0 0 -82.26 204.87 0z"/>
  <path class="fil1" d="M501.25 2340.36c-76.81,0 -139.08,62.28 -139.08,139.09 0,76.81 62.27,139.08 139.08,139.08 76.81,0 139.08,-62.27 139.08,-139.08 0,-76.81 -62.27,-139.09 -139.08,-139.09zm322.02 -1904.19l0 0c72.41,0 131.1,-58.7 131.1,-131.11 0,-72.4 -58.69,-131.09 -131.1,-131.09 -72.4,0 -131.09,58.69 -131.09,131.09 0,72.41 58.69,131.11 131.09,131.11zm0.92 2177.06l0 0c-72.19,0 -130.71,58.52 -130.71,130.71 0,72.19 58.52,130.7 130.71,130.7 72.18,0 130.7,-58.51 130.7,-130.7 0,-72.19 -58.52,-130.71 -130.7,-130.71zm-410.97 -480.42l0 0c0,-79.81 -64.7,-144.51 -144.51,-144.51 -79.82,0 -144.52,64.7 -144.52,144.51 0,79.81 64.7,144.51 144.52,144.51 79.81,0 144.51,-64.7 144.51,-144.51zm795.68 -1867.48l0 0c66.07,0 119.64,-53.57 119.64,-119.65 0,-66.07 -53.57,-119.64 -119.64,-119.64 -66.08,0 -119.65,53.57 -119.65,119.64 0,66.08 53.57,119.65 119.65,119.65zm-940.6 795.92l0 0c79.94,0 144.74,-64.81 144.74,-144.75 0,-79.93 -64.8,-144.73 -144.74,-144.73 -79.94,0 -144.73,64.8 -144.73,144.73 0,79.94 64.79,144.75 144.73,144.75zm26.29 672.31l0 0c0,-81.28 -65.9,-147.17 -147.18,-147.17 -81.28,0 -147.17,65.89 -147.17,147.17 0,81.29 65.89,147.18 147.17,147.18 81.28,0 147.18,-65.89 147.18,-147.18zm205.94 -1024.36l0 0c77.01,0 139.42,-62.42 139.42,-139.41 0,-76.99 -62.41,-139.41 -139.42,-139.41 -76.99,0 -139.4,62.42 -139.4,139.41 0,76.99 62.41,139.41 139.4,139.41zm-353.29 754.07l0 0c81.34,0 147.27,-65.93 147.27,-147.26 0,-81.33 -65.93,-147.26 -147.27,-147.26 -81.32,0 -147.25,65.93 -147.25,147.26 0,81.33 65.93,147.26 147.25,147.26zm1886.46 -1189.39l0 0c47.73,0 86.43,-38.69 86.43,-86.43 0,-47.73 -38.7,-86.44 -86.43,-86.44 -47.74,0 -86.44,38.71 -86.44,86.44 0,47.74 38.7,86.43 86.44,86.43zm368.52 2325.94l0 0c-34.6,0 -62.65,28.04 -62.65,62.65 0,34.6 28.05,62.65 62.65,62.65 34.61,0 62.66,-28.05 62.66,-62.65 0,-34.61 -28.05,-62.65 -62.66,-62.65zm-0.96 -2151.57l0 0c34.79,0 62.98,-28.2 62.98,-62.98 0,-34.79 -28.19,-62.98 -62.98,-62.98 -34.78,0 -62.98,28.19 -62.98,62.98 0,34.78 28.2,62.98 62.98,62.98zm294.43 268.06l0 0c19.43,0 35.17,-15.74 35.17,-35.16 0,-19.43 -15.74,-35.16 -35.17,-35.16 -19.42,0 -35.16,15.73 -35.16,35.16 0,19.42 15.74,35.16 35.16,35.16zm0.72 1615.06l0 0c-19.31,0 -34.96,15.65 -34.96,34.96 0,19.31 15.65,34.97 34.96,34.97 19.31,0 34.97,-15.66 34.97,-34.97 0,-19.31 -15.66,-34.96 -34.97,-34.96zm-661.57 443.2l0 0c-47.51,0 -86.02,38.51 -86.02,86.02 0,47.5 38.51,86.02 86.02,86.02 47.51,0 86.02,-38.52 86.02,-86.02 0,-47.51 -38.51,-86.02 -86.02,-86.02zm-410.46 -2564.07l0 0c57.92,0 104.87,-46.94 104.87,-104.86 0,-57.91 -46.95,-104.86 -104.87,-104.86 -57.91,0 -104.86,46.95 -104.86,104.86 0,57.92 46.95,104.86 104.86,104.86zm-414.33 2573.34l0 0c-65.84,0 -119.22,53.37 -119.22,119.22 0,65.84 53.38,119.22 119.22,119.22 65.85,0 119.22,-53.38 119.22,-119.22 0,-65.85 -53.37,-119.22 -119.22,-119.22zm415.52 54.46l0 0c-57.7,0 -104.46,46.77 -104.46,104.45 0,57.7 46.76,104.46 104.46,104.46 57.68,0 104.45,-46.76 104.45,-104.46 0,-57.68 -46.77,-104.45 -104.45,-104.45z"/>
  <path class="fil2" d="M753.47 1523.98c0,-81.68 -66.23,-147.91 -147.92,-147.91 -81.68,0 -147.9,66.23 -147.9,147.91 0,81.69 66.22,147.92 147.9,147.92 81.69,0 147.92,-66.23 147.92,-147.92zm190.32 591.46l0 0c-74.07,0 -134.12,60.05 -134.12,134.12 0,74.08 60.05,134.13 134.12,134.13 74.08,0 134.13,-60.05 134.13,-134.13 0,-74.07 -60.05,-134.12 -134.13,-134.12zm-249.76 -335.23l0 0c-79.6,0 -144.14,64.53 -144.14,144.14 0,79.6 64.54,144.14 144.14,144.14 79.61,0 144.14,-64.54 144.14,-144.14 0,-79.61 -64.53,-144.14 -144.14,-144.14zm0.2 -512.17l0 0c79.74,0 144.37,-64.64 144.37,-144.37 0,-79.73 -64.63,-144.37 -144.37,-144.37 -79.73,0 -144.37,64.64 -144.37,144.37 0,79.73 64.64,144.37 144.37,144.37zm1401.86 -466.65l0 0c29.03,0 52.55,-23.52 52.55,-52.53 0,-29.03 -23.52,-52.55 -52.55,-52.55 -29.01,0 -52.54,23.52 -52.54,52.55 0,29.01 23.53,52.53 52.54,52.53zm-1151.93 -137.29l0 0c-74.27,0 -134.48,60.21 -134.48,134.48 0,74.27 60.21,134.48 134.48,134.48 74.27,0 134.47,-60.21 134.47,-134.48 0,-74.27 -60.2,-134.48 -134.47,-134.48zm363.16 1659.05l0 0c-64.03,0 -115.94,51.91 -115.94,115.93 0,64.04 51.91,115.94 115.94,115.94 64.03,0 115.94,-51.9 115.94,-115.94 0,-64.02 -51.91,-115.93 -115.94,-115.93zm788.3 -75.48l0 0c-28.86,0 -52.26,23.39 -52.26,52.26 0,28.87 23.4,52.27 52.26,52.27 28.87,0 52.27,-23.4 52.27,-52.27 0,-28.87 -23.4,-52.26 -52.27,-52.26zm-378.25 -1745.8l0 0c-49.57,0 -89.76,40.19 -89.76,89.76 0,49.58 40.19,89.76 89.76,89.76 49.58,0 89.76,-40.18 89.76,-89.76 0,-49.57 -40.18,-89.76 -89.76,-89.76zm-0.32 1865.63l0 0c-49.37,0 -89.38,40.02 -89.38,89.37 0,49.37 40.01,89.39 89.38,89.39 49.36,0 89.38,-40.02 89.38,-89.39 0,-49.35 -40.02,-89.37 -89.38,-89.37zm-409.38 -1874.57l0 0c-64.25,0 -116.33,52.09 -116.33,116.34 0,64.25 52.08,116.34 116.33,116.34 64.26,0 116.34,-52.09 116.34,-116.34 0,-64.25 -52.08,-116.34 -116.34,-116.34z"/>
 </g>
</svg>
