<svg width="24" height="24" viewBox="0 0 24 24" fill="none" xmlns="http://www.w3.org/2000/svg">
<path fill-rule="evenodd" clip-rule="evenodd" d="M10.6601 6.0002C11.0572 5.73809 11.5243 5.60214 12.0001 5.6102C13.3283 5.60992 14.4128 6.67219 14.4401 8.0002C14.4415 8.98156 13.8525 9.86744 12.947 10.2458C12.0415 10.6242 10.9973 10.4208 10.3001 9.7302C9.9615 9.39037 9.72877 8.95963 9.63006 8.4902C9.53582 8.02003 9.58458 7.5324 9.77006 7.0902C9.9473 6.64383 10.2581 6.26313 10.6601 6.0002ZM11.1701 9.2902C11.4173 9.45078 11.7052 9.5375 12.0001 9.5402C12.4008 9.54031 12.7853 9.38218 13.0701 9.1002C13.3506 8.81777 13.5117 8.43821 13.5201 8.0402C13.5217 7.74325 13.4308 7.45316 13.2601 7.2102C13.0991 6.95956 12.8653 6.76415 12.5901 6.6502C12.3139 6.5405 12.0128 6.50935 11.7201 6.5602C11.1237 6.6801 10.6576 7.14608 10.5375 7.74235C10.4173 8.33862 10.6667 8.94875 11.1701 9.2902Z" fill="#160E4E"/>
<path fill-rule="evenodd" clip-rule="evenodd" d="M21.76 15.1102C22.1688 15.6735 22.4518 16.318 22.59 17.0002C22.6216 17.1624 22.6182 17.3294 22.58 17.4902C22.5378 17.6525 22.4592 17.803 22.35 17.9302C22.2362 18.0634 22.0968 18.1722 21.94 18.2502C21.7813 18.3286 21.6069 18.3696 21.43 18.3702H2.54996C2.37346 18.3661 2.19977 18.3252 2.03996 18.2502C1.88313 18.1722 1.74367 18.0634 1.62996 17.9302C1.52751 17.8 1.45265 17.6503 1.40996 17.4902C1.37507 17.3287 1.37507 17.1617 1.40996 17.0002C1.55277 16.3142 1.84655 15.6685 2.26996 15.1102C3.54932 13.3706 5.83281 12.6995 7.84996 13.4702C10.2025 11.2704 13.8574 11.2704 16.21 13.4702C17.5193 12.9686 18.9833 13.0711 20.21 13.7502C20.8207 14.0835 21.3501 14.5479 21.76 15.1102ZM2.36996 17.3802C2.4274 17.441 2.50637 17.4769 2.58996 17.4802L5.99996 17.5002C5.93511 17.268 5.93511 17.0224 5.99996 16.7902C6.1841 15.8612 6.58879 14.9901 7.17996 14.2502C6.82666 14.1627 6.46393 14.119 6.09996 14.1202C4.28606 14.1486 2.73537 15.4333 2.36996 17.2102C2.35091 17.2653 2.35091 17.3251 2.36996 17.3802ZM17 17.3202C16.9469 17.3769 16.8821 17.4213 16.81 17.4502C16.7444 17.4819 16.6728 17.499 16.6 17.5002H7.38996C7.31392 17.4992 7.23895 17.4822 7.16996 17.4502C7.10696 17.4158 7.04963 17.372 6.99996 17.3202C6.96038 17.2691 6.92993 17.2116 6.90996 17.1502C6.89514 17.0911 6.89514 17.0293 6.90996 16.9702C7.0667 16.1066 7.44195 15.2976 7.99996 14.6202C8.2153 14.3903 8.45315 14.1826 8.70996 14.0002C10.6248 12.4267 13.3851 12.4267 15.3 14.0002C15.5503 14.1906 15.7784 14.4087 15.98 14.6502C16.5587 15.3205 16.9517 16.1307 17.12 17.0002C17.1348 17.0593 17.1348 17.1211 17.12 17.1802C17.0914 17.2356 17.0503 17.2835 17 17.3202ZM21.39 17.5002C21.4766 17.4974 21.5588 17.4616 21.62 17.4002H21.64C21.6721 17.3803 21.694 17.3475 21.7 17.3102C21.7048 17.2804 21.7048 17.25 21.7 17.2202C21.3338 15.4119 19.7449 14.1115 17.9 14.1102C17.562 14.1135 17.2259 14.1606 16.9 14.2502C17.48 14.9932 17.8743 15.864 18.05 16.7902C18.0986 17.027 18.0813 17.2726 18 17.5002H21.39Z" fill="#160E4E"/>
<path fill-rule="evenodd" clip-rule="evenodd" d="M16.8 8.74992C17.1237 8.53661 17.5024 8.42197 17.89 8.41992C18.4147 8.42213 18.9175 8.63043 19.29 8.99992C19.6621 9.36427 19.8773 9.85935 19.89 10.3799C19.8792 11.1692 19.4052 11.8782 18.68 12.1899C18.3198 12.3405 17.9225 12.3788 17.54 12.2999C17.1626 12.2232 16.8154 12.0392 16.54 11.7699C16.2707 11.4932 16.0837 11.1469 16 10.7699C15.9172 10.3934 15.945 10.001 16.08 9.63992C16.2282 9.27944 16.4785 8.9701 16.8 8.74992ZM17.32 11.2399C17.4891 11.3529 17.6868 11.4153 17.89 11.4199V11.3799C18.4489 11.3755 18.9084 10.9379 18.94 10.3799C18.9409 10.1742 18.8818 9.97266 18.77 9.79992C18.6529 9.62853 18.4901 9.49342 18.3 9.40992C18.111 9.32866 17.9015 9.30771 17.7 9.34992C17.4999 9.38977 17.3157 9.48707 17.17 9.62992C17.0192 9.77513 16.9178 9.964 16.88 10.1699C16.8411 10.3707 16.8584 10.5783 16.93 10.7699C17.0078 10.9634 17.1442 11.1278 17.32 11.2399Z" fill="#160E4E"/>
<path fill-rule="evenodd" clip-rule="evenodd" d="M5 8.76002C5.32606 8.53486 5.71378 8.4161 6.11 8.42002C6.37136 8.42318 6.62956 8.47753 6.87 8.58002C7.11056 8.67333 7.32867 8.81646 7.51 9.00002C7.68116 9.18157 7.81382 9.39586 7.9 9.63002C8.00249 9.87046 8.05684 10.1287 8.06 10.39C8.05796 10.7777 7.94331 11.1563 7.73 11.48C7.51251 11.8001 7.20682 12.0502 6.85 12.2C6.49335 12.351 6.09908 12.3894 5.72 12.31C5.3414 12.2367 4.99325 12.0521 4.72 11.78C4.44008 11.5112 4.25127 11.1615 4.18 10.78C4.09684 10.402 4.13175 10.0076 4.28 9.65002C4.42816 9.28953 4.67841 8.98019 5 8.76002ZM5.54 11.23C5.70821 11.346 5.90586 11.4119 6.11 11.42V11.43C6.25041 11.4286 6.38937 11.4015 6.52 11.35C6.64587 11.2982 6.76112 11.2236 6.86 11.13C6.9577 11.0324 7.03578 10.917 7.09 10.79C7.14352 10.6631 7.17399 10.5276 7.18 10.39C7.17728 10.1834 7.11476 9.98191 7 9.81002C6.90144 9.64252 6.75989 9.50441 6.59 9.41002C6.40094 9.32876 6.19141 9.3078 5.99 9.35002C5.7869 9.38968 5.59946 9.48687 5.45 9.63002C5.30101 9.77256 5.19972 9.95768 5.16 10.16C5.10492 10.3562 5.10492 10.5638 5.16 10.76C5.23516 10.9521 5.36789 11.1163 5.54 11.23Z" fill="#160E4E"/>
</svg>
