<svg width="24" height="24" viewBox="0 0 24 24" fill="none" xmlns="http://www.w3.org/2000/svg">
<path fill-rule="evenodd" clip-rule="evenodd" d="M12.0487 9.65024C12.0558 9.65027 12.0629 9.65026 12.07 9.65024H12.049C12.8937 9.64642 13.703 9.30876 14.3 8.71024C14.9231 8.11748 15.2832 7.30009 15.3 6.44024C15.3009 5.80644 15.1129 5.18675 14.76 4.66024C14.4034 4.1343 13.9037 3.72139 13.32 3.47024C12.7318 3.22651 12.0841 3.16384 11.46 3.29024C10.8386 3.4095 10.2673 3.71258 9.82003 4.16024C9.14178 4.83925 8.80177 5.78541 8.89267 6.74083C8.98357 7.69624 9.49591 8.56131 10.29 9.10024C10.8075 9.45644 11.4203 9.64804 12.0482 9.65024H12.02M10.8 4.55024C11.175 4.2965 11.6173 4.16068 12.07 4.16024H12.08C12.6874 4.15758 13.2709 4.3963 13.7022 4.82389C14.1336 5.25147 14.3774 5.83289 14.38 6.44024C14.385 6.89231 14.2525 7.33521 14 7.71024C13.7568 8.08507 13.4092 8.38054 13 8.56024C12.573 8.73638 12.1041 8.78501 11.65 8.70024C11.207 8.6066 10.7985 8.39199 10.47 8.08024C9.98445 7.596 9.74028 6.92035 9.80411 6.23756C9.86794 5.55477 10.2331 4.93608 10.8 4.55024Z" fill="#160E4E"/>
<path fill-rule="evenodd" clip-rule="evenodd" d="M5.60006 20.7701H18.5301C18.7946 20.7657 19.0546 20.7007 19.2901 20.5801C19.7475 20.3513 20.0884 19.9415 20.2301 19.4501C20.2847 19.2064 20.2847 18.9537 20.2301 18.7101C19.441 14.7881 15.9956 11.9668 11.9951 11.9668C7.99452 11.9668 4.54908 14.7881 3.76006 18.7101C3.71977 18.9613 3.74034 19.2185 3.82006 19.4601C3.89686 19.7023 4.02667 19.9243 4.20006 20.1101C4.36765 20.3216 4.58374 20.4897 4.83006 20.6001C5.06852 20.7201 5.33323 20.7785 5.60006 20.7701ZM12.0678 12.9C8.48643 12.8734 5.38862 15.3892 4.68006 18.9001C4.65505 19.012 4.65505 19.1281 4.68006 19.2401C4.70903 19.3513 4.76385 19.454 4.84006 19.5401C4.92278 19.6412 5.02929 19.7202 5.15006 19.7701C5.26802 19.8291 5.39812 19.86 5.53006 19.8601H18.5301C18.662 19.86 18.7921 19.8291 18.9101 19.7701C19.138 19.6725 19.3104 19.4781 19.3801 19.2401C19.4051 19.1281 19.4051 19.012 19.3801 18.9001C18.6912 15.4083 15.6261 12.8938 12.0678 12.9Z" fill="#160E4E"/>
</svg>
