<svg width="24" height="24" viewBox="0 0 24 24" fill="none" xmlns="http://www.w3.org/2000/svg">
<path fill-rule="evenodd" clip-rule="evenodd" d="M18.46 4.62012H5.53999C4.92946 4.61928 4.34343 4.86016 3.90999 5.29012C3.47354 5.72003 3.22846 6.30749 3.22999 6.92012V17.0801C3.22846 17.6927 3.47354 18.2802 3.90999 18.7101C4.34242 19.1428 4.92825 19.3872 5.53999 19.3901H18.46C19.0717 19.3872 19.6576 19.1428 20.09 18.7101C20.5264 18.2802 20.7715 17.6927 20.77 17.0801V6.92012C20.7715 6.30749 20.5264 5.72003 20.09 5.29012C19.6565 4.86016 19.0705 4.61928 18.46 4.62012ZM19.85 13.8501H14.77C14.6458 13.8489 14.5272 13.7985 14.44 13.7101C14.3584 13.6233 14.3121 13.5092 14.31 13.3901V10.6201C14.3106 10.4977 14.357 10.38 14.44 10.2901C14.5272 10.2017 14.6458 10.1514 14.77 10.1501H19.85V13.8501ZM14.77 9.23012H19.85L19.87 6.92012C19.8727 6.54534 19.725 6.18514 19.46 5.92012C19.1946 5.65684 18.8337 5.5125 18.46 5.52012H5.53999C5.16624 5.5125 4.80538 5.65684 4.53999 5.92012C4.27498 6.18514 4.12729 6.54534 4.12999 6.92012V17.0801C4.12729 17.4549 4.27498 17.8151 4.53999 18.0801C4.80538 18.3434 5.16624 18.4877 5.53999 18.4801H18.44C18.8137 18.4877 19.1746 18.3434 19.44 18.0801C19.705 17.8151 19.8527 17.4549 19.85 17.0801V14.7701H14.77C14.0084 14.7648 13.3908 14.1516 13.38 13.3901V10.6201C13.3854 9.85471 14.0046 9.23557 14.77 9.23012Z" fill="#160E4E"/>
<path d="M16.64 11H15.72C15.598 11 15.481 11.0485 15.3947 11.1347C15.3085 11.221 15.26 11.338 15.26 11.46V12.38C15.2573 12.5037 15.3046 12.6233 15.3911 12.7118C15.4777 12.8002 15.5962 12.85 15.72 12.85H16.64C16.7637 12.85 16.8823 12.8002 16.9689 12.7118C17.0554 12.6233 17.1027 12.5037 17.1 12.38V11.5C17.1112 11.3712 17.0678 11.2437 16.9803 11.1486C16.8928 11.0534 16.7693 10.9995 16.64 11Z" fill="#160E4E"/>
</svg>
